HIERARCHY
ROOT Hips
{
	OFFSET -14.64140 90.27770 -84.91600
	CHANNELS 6 Xposition Yposition Zposition Zrotation Xrotation Yrotation
	JOINT Spine
	{
		OFFSET 0.00000 13.20850 -1.60436
		CHANNELS 3 Zrotation Xrotation Yrotation
		JOINT Spine1
		{
			OFFSET 0.00000 8.61716 0.00000
			CHANNELS 3 Zrotation Xrotation Yrotation
			JOINT Spine2
			{
				OFFSET 0.00000 8.61717 0.00000
				CHANNELS 3 Zrotation Xrotation Yrotation
				JOINT Spine3
				{
					OFFSET 0.00000 8.61717 0.00000
					CHANNELS 3 Zrotation Xrotation Yrotation
					JOINT Neck
					{
						OFFSET 0.00000 11.07920 1.10792
						CHANNELS 3 Zrotation Xrotation Yrotation
						JOINT Neck1
						{
							OFFSET 0.00000 7.08032 0.00000
							CHANNELS 3 Zrotation Xrotation Yrotation
							JOINT Head
							{
								OFFSET 0.00000 7.08031 0.00000
								CHANNELS 3 Zrotation Xrotation Yrotation
								End site
								{
									OFFSET 0.00000 0.00000 0.00000
								}
							}
						}
					}
					JOINT RightShoulder
					{
						OFFSET -0.01000 7.91373 5.19711
						CHANNELS 3 Zrotation Xrotation Yrotation
						JOINT RightArm
						{
							OFFSET -18.41580 0.00000 0.00000
							CHANNELS 3 Zrotation Xrotation Yrotation
							JOINT RightForeArm
							{
								OFFSET -29.11090 0.00000 0.00000
								CHANNELS 3 Zrotation Xrotation Yrotation
								JOINT RightHand
								{
									OFFSET -24.65040 0.00000 0.00000
									CHANNELS 3 Zrotation Xrotation Yrotation
									JOINT RightHandThumb1
									{
										OFFSET -5.35114 -0.85590 3.97906
										CHANNELS 3 Zrotation Xrotation Yrotation
										JOINT RightHandThumb2
										{
											OFFSET -4.52789 0.00000 0.00000
											CHANNELS 3 Zrotation Xrotation Yrotation
											JOINT RightHandThumb3
											{
												OFFSET -2.46976 0.00000 0.00000
												CHANNELS 3 Zrotation Xrotation Yrotation
												End site
												{
													OFFSET 0.00000 0.00000 0.00000
												}
											}
										}
									}
									JOINT RightHandIndex1
									{
										OFFSET -14.26970 0.00000 2.88139
										CHANNELS 3 Zrotation Xrotation Yrotation
										JOINT RightHandIndex2
										{
											OFFSET -5.48836 0.00000 0.00000
											CHANNELS 3 Zrotation Xrotation Yrotation
											JOINT RightHandIndex3
											{
												OFFSET -3.01859 0.00000 0.00000
												CHANNELS 3 Zrotation Xrotation Yrotation
												End site
												{
													OFFSET 0.00000 0.00000 0.00000
												}
											}
										}
									}
									JOINT RightHandMiddle1
									{
										OFFSET -14.26970 0.00000 -0.09147
										CHANNELS 3 Zrotation Xrotation Yrotation
										JOINT RightHandMiddle2
										{
											OFFSET -6.17441 0.00000 0.00000
											CHANNELS 3 Zrotation Xrotation Yrotation
											JOINT RightHandMiddle3
											{
												OFFSET -3.56743 0.00000 0.00000
												CHANNELS 3 Zrotation Xrotation Yrotation
												End site
												{
													OFFSET 0.00000 0.00000 0.00000
												}
											}
										}
									}
									JOINT RightHandRing1
									{
										OFFSET -12.69180 0.00000 -3.06433
										CHANNELS 3 Zrotation Xrotation Yrotation
										JOINT RightHandRing2
										{
											OFFSET -5.62556 0.00000 0.00000
											CHANNELS 3 Zrotation Xrotation Yrotation
											JOINT RightHandRing3
											{
												OFFSET -3.56744 0.00000 0.00000
												CHANNELS 3 Zrotation Xrotation Yrotation
												End site
												{
													OFFSET 0.00000 0.00000 0.00000
												}
											}
										}
									}
									JOINT RightHandPinky1
									{
										OFFSET -11.11390 0.00000 -6.03719
										CHANNELS 3 Zrotation Xrotation Yrotation
										JOINT RightHandPinky2
										{
											OFFSET -4.52789 0.00000 0.00000
											CHANNELS 3 Zrotation Xrotation Yrotation
											JOINT RightHandPinky3
											{
												OFFSET -2.46976 0.00000 0.00000
												CHANNELS 3 Zrotation Xrotation Yrotation
												End site
												{
													OFFSET 0.00000 0.00000 0.00000
												}
											}
										}
									}
								}
							}
						}
					}
					JOINT LeftShoulder
					{
						OFFSET 0.01000 7.91373 5.19711
						CHANNELS 3 Zrotation Xrotation Yrotation
						JOINT LeftArm
						{
							OFFSET 18.41580 0.00000 0.00000
							CHANNELS 3 Zrotation Xrotation Yrotation
							JOINT LeftForeArm
							{
								OFFSET 29.11090 0.00000 0.00000
								CHANNELS 3 Zrotation Xrotation Yrotation
								JOINT LeftHand
								{
									OFFSET 24.65040 0.00000 0.00000
									CHANNELS 3 Zrotation Xrotation Yrotation
									JOINT LeftHandThumb1
									{
										OFFSET 5.35114 -0.85590 3.97906
										CHANNELS 3 Zrotation Xrotation Yrotation
										JOINT LeftHandThumb2
										{
											OFFSET 4.52789 0.00000 0.00000
											CHANNELS 3 Zrotation Xrotation Yrotation
											JOINT LeftHandThumb3
											{
												OFFSET 2.46977 0.00000 0.00000
												CHANNELS 3 Zrotation Xrotation Yrotation
												End site
												{
													OFFSET 0.00000 0.00000 0.00000
												}
											}
										}
									}
									JOINT LeftHandIndex1
									{
										OFFSET 14.26970 0.00000 2.88139
										CHANNELS 3 Zrotation Xrotation Yrotation
										JOINT LeftHandIndex2
										{
											OFFSET 5.48836 0.00000 0.00000
											CHANNELS 3 Zrotation Xrotation Yrotation
											JOINT LeftHandIndex3
											{
												OFFSET 3.01859 0.00000 0.00000
												CHANNELS 3 Zrotation Xrotation Yrotation
												End site
												{
													OFFSET 0.00000 0.00000 0.00000
												}
											}
										}
									}
									JOINT LeftHandMiddle1
									{
										OFFSET 14.26970 0.00000 -0.09147
										CHANNELS 3 Zrotation Xrotation Yrotation
										JOINT LeftHandMiddle2
										{
											OFFSET 6.17440 0.00000 0.00000
											CHANNELS 3 Zrotation Xrotation Yrotation
											JOINT LeftHandMiddle3
											{
												OFFSET 3.56744 0.00000 0.00000
												CHANNELS 3 Zrotation Xrotation Yrotation
												End site
												{
													OFFSET 0.00000 0.00000 0.00000
												}
											}
										}
									}
									JOINT LeftHandRing1
									{
										OFFSET 12.69180 0.00000 -3.06433
										CHANNELS 3 Zrotation Xrotation Yrotation
										JOINT LeftHandRing2
										{
											OFFSET 5.62556 0.00000 0.00000
											CHANNELS 3 Zrotation Xrotation Yrotation
											JOINT LeftHandRing3
											{
												OFFSET 3.56744 0.00000 0.00000
												CHANNELS 3 Zrotation Xrotation Yrotation
												End site
												{
													OFFSET 0.00000 0.00000 0.00000
												}
											}
										}
									}
									JOINT LeftHandPinky1
									{
										OFFSET 11.11390 0.00000 -6.03719
										CHANNELS 3 Zrotation Xrotation Yrotation
										JOINT LeftHandPinky2
										{
											OFFSET 4.52789 0.00000 0.00000
											CHANNELS 3 Zrotation Xrotation Yrotation
											JOINT LeftHandPinky3
											{
												OFFSET 2.46976 0.00000 0.00000
												CHANNELS 3 Zrotation Xrotation Yrotation
												End site
												{
													OFFSET 0.00000 0.00000 0.00000
												}
											}
										}
									}
								}
							}
						}
					}
					JOINT pCube4
					{
						OFFSET 0.00000 10.91090 1.10792
						CHANNELS 3 Zrotation Xrotation Yrotation
						End site
						{
							OFFSET 0.00000 0.00000 0.00000
						}
					}
				}
			}
		}
	}
	JOINT RightUpLeg
	{
		OFFSET -9.98441 0.00000 0.00000
		CHANNELS 3 Zrotation Xrotation Yrotation
		JOINT RightLeg
		{
			OFFSET 0.00000 -42.11790 0.00000
			CHANNELS 3 Zrotation Xrotation Yrotation
			JOINT RightFoot
			{
				OFFSET 0.00000 -45.00020 -0.00001
				CHANNELS 3 Zrotation Xrotation Yrotation
				JOINT RightForeFoot
				{
					OFFSET 0.00000 -3.74820 0.00000
					CHANNELS 3 Zrotation Xrotation Yrotation
					JOINT RightToeBase
					{
						OFFSET 0.00000 0.06325 14.43120
						CHANNELS 3 Zrotation Xrotation Yrotation
						End site
						{
							OFFSET 0.00000 0.00000 0.00000
						}
					}
				}
			}
		}
	}
	JOINT LeftUpLeg
	{
		OFFSET 9.98441 0.00000 0.00000
		CHANNELS 3 Zrotation Xrotation Yrotation
		JOINT LeftLeg
		{
			OFFSET 0.00000 -42.11800 0.00000
			CHANNELS 3 Zrotation Xrotation Yrotation
			JOINT LeftFoot
			{
				OFFSET 0.00000 -45.00070 0.00000
				CHANNELS 3 Zrotation Xrotation Yrotation
				JOINT LeftForeFoot
				{
					OFFSET 0.00000 -3.74824 0.00000
					CHANNELS 3 Zrotation Xrotation Yrotation
					JOINT LeftToeBase
					{
						OFFSET 0.00000 0.06325 14.43110
						CHANNELS 3 Zrotation Xrotation Yrotation
						End site
						{
							OFFSET 0.00000 0.00000 0.00000
						}
					}
				}
			}
		}
	}
}
MOTION
Frames: 4
Frame Time: 0.050000
-0.001211243291956104 0.023812464670409626 -0.028553352952526263 0.047513160150407685 -0.002826823463312514 -0.02197941621254294 -2.157007069396781 0.23507205325999603 -0.8747873497388924 -0.9751539562273716 3.7322102172254095 0.3257356927774673 -1.1670408226820665 -1.8610664175137395 -1.3704382273965667 0.10345230014927441 0.4135612597102485 -0.8558960308856994 -0.12248163117642594 12.811167927917474 0.7685069087000936 0.5393207966645244 0.5537727753053526 1.1917598231846298 0.3451571528414511 -13.881284782547171 0.0785416175138597 -3.6784269005944976 1.417270350890202 -15.705129805136115 73.45346956974106 15.89495644321953 -0.7046839320523564 -3.6846254601081987 7.367523594973212 42.507032973449284 22.71507417299956 0.009604660501196901 -4.932868165147079 4.5496648792976915 -0.11668569366057928 -1.5811866218028476 -0.027852719527144885 -0.013792318017072773 -56.26656061339632 0.0023181716265536115 -0.03863410972224845 -56.25280336987805 -38.76085545321978 0.035731301874685116 -0.033024481673665264 -0.048590472309481186 0.033200561996603976 -0.006399807393689319 -0.016673369744541488 0.04072666495935622 -0.00814829358532645 -36.656758157179475 -0.024166745566598348 -0.03277759473885314 0.0030908910590663357 -0.020232143031079952 0.020366581834090413 -0.04138341317731226 0.024917200143076013 -0.019704420373840757 -19.77481241471909 0.03035208450338835 0.019708039474862337 0.02553074593582605 0.01207268009802167 0.029932438215944036 -0.006681204865809325 0.041857377546489244 -0.008312019298522402 24.09092132133708 0.0032614513586021678 -0.02597885754918592 28.841477396496202 0.0005371289495499562 -0.007327480572473229 28.875491521304557 0.03647210230417463 0.036018279832400156 5.480800688322566 1.3852284309391676 13.777224320063242 -71.15513832852723 29.47357325645069 -6.9091506247924235 -7.03863835684608 -7.70082044 -89.17038395924646 -9.845343890508294 -5.893441738225743 3.794582826883538 -0.45232413382489683 0.10749862703406517 -8.150207882063214 -0.04718161764505332 0.017942005909287167 44.554210439520794 0.025400065615649867 0.0325824223912938 44.5750621241126 12.474752167120581 0.010478717810767356 0.02418562204131131 0.002462234515205927 0.047028120157904515 0.012945371313714482 -0.007159052864572584 0.004577167924167458 -0.03371704553198997 11.151817095940727 -0.009757331419350054 0.017463197644206827 0.04800621095323493 -0.026530429075009212 0.005054941124748021 -0.03500477675990092 -0.014721376099680245 -0.026099895189788308 4.780497468901411 0.009596393714856797 -0.04596530994751902 0.029559107250083844 -0.022743509659135103 -0.006615000590227283 0.012800295013821825 -0.04374582631530166 -0.046899661431019424 -5.6065145493497415 0.03646564549293205 0.016388028525113358 -6.703304610354014 0.01082713342280402 0.0171809086902498 -6.721600701569115 -0.025464108013545286 0.012221573115235715 -0.0008567509200696327 0.029611530511143243 -0.019170321694583926 8.054826803585849 3.495479125533906 -19.177887646022665 0.02604317846413006 10.381939541864233 -0.03252577309313813 -5.607947920490725 -15.622421320880347 3.199523861595154 -0.033750156075658136 -0.02110918467219644 -0.0005048343895076928 -0.032305530157298 4.675449462646628 0.03780206583773449 12.44763813380424 -8.205247212344998 6.873082718563673 0.042920765599477134 46.35874299086029 0.009243387319549363 -4.306459482282383 -14.780050660157283 -3.8643945393050676 0.008502798412228674 -0.014183653991732048 0.0010786596750599424 0.03961976063539458 -10.744609976133587 0.015479845865883088 
0.021549988956815088 -0.020557822238919193 0.0448530913326759 0.025453504339668157 -0.03330827365788659 -0.0042562041862176285 -2.3478766109435663 0.22874250400588048 -0.81818531811379 -1.0053561946610734 3.724988241810295 0.36823594090589845 -1.2217511264858636 -1.95785387389928 -1.4635643020216298 0.04389865449087188 0.3534261759905869 -0.860780603267474 -0.13859837980041578 13.026998488041539 1.111354576643918 0.5279640811599686 0.6832733959408487 1.8848593384286456 0.2972320434949863 -13.686044573199228 0.14481484630333588 -3.7925360321063524 1.3951298298524875 -15.700233459952381 73.25195359159197 15.303304276142601 -0.8689659148390375 -3.33648993793173 7.5166532476072545 42.40376887036821 22.892610099932323 -0.0704143085326456 -4.895147292724257 4.556388235191832 -0.1312571758487589 -1.5800241157130985 0.0380311453681954 -0.003900758013555433 -56.19691668415664 -0.02816683226959959 -0.015485483720057834 -56.18727354980524 -38.761289617377834 -0.03281499506462858 0.036991713356852786 0.03649780901428979 0.03175422200674541 0.034952817924050555 -0.024309186686944623 -0.0065394333221759264 -0.04222275688484471 -36.67393057924785 0.03228105506644745 -0.0069139792722317395 -0.01634509908468925 0.04674310458736012 0.020026970685226606 0.005850502578365057 -0.006498479291630938 -0.046583302679899886 -19.738094165158127 -0.009276415716578768 0.011115656848515424 0.0016553028733555413 -0.026381950952943326 0.01117322137489529 0.009092029642341942 0.01284532756515953 -0.006358670950894704 24.087330826494373 -0.03414879952706706 -0.04031282877110708 28.9034160994803 -0.006360866470761531 0.017244723282852346 28.863587806702466 -0.04664948932136643 -0.037816035726423336 5.628022429135104 1.3248492221894586 13.79631274351947 -71.01264536044658 29.868186884186418 -7.219022524869645 -7.175721849390917 -7.952821407087515 -89.55436563697484 -8.839476630364452 -5.086942414948242 2.847047800432381 -0.4990377204816546 0.02247346646348347 -8.101192240912008 0.03802035926327766 0.013827343915662869 44.54189290159981 -0.020571405699167558 5.339088891841996e-05 44.60709318987149 12.443100974771705 0.0031018659259728363 0.04701972170541395 0.00893663811858236 0.04583990037894552 -0.009849046162212825 0.028737387563769864 -0.043443159344630854 -0.024328532638744155 11.056986301299263 -0.0245599930727116 -0.04166711547573437 -0.005006435674441808 -0.03827623061917691 -0.004272848966055464 -0.020055257222436004 -0.0030375297004500736 0.026646461097461445 4.763832655392189 0.04205722243693147 -0.00893994186384299 -0.049804139435445094 -0.02316046159270523 -0.006106625806943284 0.004189233542083445 0.04028812858577025 -0.0438096624309207 -5.64422453488528 -0.002105483806555636 -0.027324498432954133 -6.694424747623794 0.013244383834145222 0.040507926300502144 -6.7554636839399835 -0.028206233835648315 -0.037758889245959396 -0.035047020919279574 0.024485528101804578 0.0062139580369670305 8.0354050599524 3.4970758464152496 -19.184836739614457 0.014572808542019923 10.359385003209704 0.0076005313279250385 -5.618466165387771 -15.659758828399125 3.1627215312422354 0.03175908045504041 0.02946910937828914 -0.043790324961845546 -0.002178160385338489 4.700443449822912 0.03693762417791272 12.4206568874599 -8.260812886397563 6.879472835682067 -0.017480384650235287 46.40873945833111 -0.008432090409163847 -4.373066075626965 -14.784738641573732 -3.841805549183376 0.027729093589682247 -0.0237516594384323 -0.022827643032407904 -0.0030619630583520164 -10.788382761100118 0.033007065420525644 
0.03135224258324086 -0.020246712060066084 -0.017126617620988768 -0.019691062181423895 0.034790648395786994 -0.005495833719006201 -2.4544215583413673 0.15396738011990962 -0.8245066240073725 -1.019343787449785 3.7301802241587425 0.4056078201209399 -1.159857147446235 -2.0074749189639243 -1.4403913973049376 0.003472753588867346 0.4033450570315719 -0.9084431465369049 -0.27673616143034224 13.239121790885932 1.4443542270865222 0.6242057989862784 0.6709387944044974 2.7555607304254006 0.24300468708849907 -13.605027333415498 0.23199688361353013 -3.8427178390481833 1.4277256543571581 -15.764293027124317 73.23157546892841 15.20843082920223 -1.0792004583116483 -2.464399544859243 7.56909525108519 42.93591066706906 22.78610032478418 -0.09977896938879069 -4.656079977813453 4.566755729354424 -0.15521531369439312 -1.59597766335074 0.025002234790757527 -0.027383067004524028 -56.25931259673385 0.0005666740076565697 0.0011275777155450527 -56.25506297697763 -38.759130558271615 0.014148780802089572 -0.014523859201140151 0.008563535690638403 -0.024547932456426634 -0.04338285153221185 0.03577960669630099 -0.010698632945788728 -0.023895014575346096 -36.68911494698293 0.03701679384479376 0.011444584920006946 -0.01473337807423974 -0.0060057308718810985 0.043850786986133414 0.010992487199163428 -0.03021043140914122 0.008900784355811368 -19.716410286217503 0.0064311380778357815 0.009227309147047702 -0.003473726624054203 -0.019879144316966118 0.016897241470585654 0.03741755412001727 0.009030931285121413 -0.008976221279798234 24.00512410811201 -0.022956095266340994 -0.02932946650795784 28.84691639786294 -0.03433714881354847 -0.03456454083462856 28.876147464363225 -0.047129418554669684 -0.02458120300396477 5.814422543138113 1.3624398659932089 13.876787375762138 -70.817013522007 30.428925552925026 -7.438557644209709 -6.028303850767418 -8.65851203576321 -90.48395827988956 -7.743027972730649 -4.33779101929563 1.5824758105734498 -0.434937616673116 0.08695837726986642 -8.103705942122124 -0.00034288455002464763 -0.042757843102920766 44.5916957607799 -0.0325731078694249 -0.02873834863267684 44.57354435958551 12.429964900573491 0.027300237166613794 -0.007530145129316779 -0.029301269046346147 0.047795679656116856 -0.008749727234316721 -0.0033912625851372094 0.0377575526763176 -0.00392990750914338 11.117733250945069 0.014251552344240966 -0.025223178408451733 -0.04923630334323274 -0.03814084552467769 -0.02521122391655696 -0.03238096434012005 -0.0035099118757682675 0.006802586587115604 4.793310435420069 0.024498422336349378 0.026287951120506827 -0.0012036042757775636 -0.019767565511712964 0.006003756149864513 -0.03624749959456538 0.04091092886079917 0.040893362601080216 -5.600532494044055 -0.014226149160540937 0.018769357427790935 -6.723350633774103 -0.041544468900957136 0.014101526522630949 -6.699883912346334 -0.03466752476990952 0.015746957781167244 -0.019977779708693993 -0.01880304830952811 -0.0020557757742557517 8.053784943064592 3.516731757916524 -19.23534859912622 -0.026887658550956976 10.386914954250745 0.03625185148117156 -5.627893357321613 -15.647518434206505 3.1431047786301254 0.021861845278700023 0.010038307606184405 0.019907669944164225 0.004181611411770097 4.674530814324171 0.022987957549220377 12.480816556844834 -8.245204988108684 6.889833235332144 -0.010558214308464544 46.334707738033714 -0.014644745339139086 -4.292915630474862 -14.710727133938011 -3.8279331135350043 0.008992187955849744 0.014483507203273249 -0.018509462388489332 0.035696970455449124 -10.775818550831566 0.035034400732493205 
-0.01763055848923806 -0.02093668670623361 0.02806941142353324 -0.04028964166838369 0.028790121026872645 -0.01248418254740069 -2.6301910479377297 0.09066511776715533 -0.8403333830455808 -0.9773658644548189 3.7202978763052585 0.4087423433498457 -1.2102015321613309 -2.030034227775503 -1.4152951042025386 -0.15122806480946183 0.47244880031463377 -0.9078757832574942 -0.30450686011096534 13.416688387511378 1.7523056630765308 0.6543191127309926 0.7599201138462659 3.4937545977533295 0.16277938958010382 -13.53302154778458 0.32422591858320354 -3.9444165505510105 1.4424945394014923 -15.724983543388237 73.19736674865126 15.025326060876518 -1.3461560428903754 -1.5929383448946088 7.618006085536959 43.321628429084576 22.74875538647858 -0.0513080777918193 -4.455098398954215 4.484632772442346 -0.11292148795279335 -1.6047202540175713 -0.03169255948498401 0.037002272878086905 -56.2089634418494 -0.019831810262432022 -0.009145407678402927 -56.22635110763767 -38.78722095405869 0.009529942939251548 0.030813171416665234 0.01853149506212102 -0.029496655780874296 0.016091185474908024 -0.011642454388146428 -0.003864572636639169 0.03901503714662477 -36.67499781524438 0.034245144411712856 -0.021131111481463277 -0.040689974591911066 -0.015880820916569647 -0.030411321163814446 0.00663729859700137 0.004304986939843326 0.019850330104071643 -19.75016165373773 -0.04833551583553041 0.019115338416579034 0.007396968037775847 -0.0036555292675767826 0.02005322891274044 0.044989021172490075 0.03650041828764996 0.025915766700863447 24.10056587916338 -0.016482653296389323 -0.044318850932646245 28.898127554441437 -0.014889192552090053 0.021266689429378073 28.90743139838005 0.014510702497512995 -0.01425109629348242 6.034709593332877 1.3814608427098827 14.009417149624431 -70.42717263141606 30.99347918677061 -7.774444733878862 -3.3444968266456114 -10.056585832012358 -91.66498445024624 -6.387785389051488 -3.6537329958441767 0.34112533190107447 -0.5126357956582377 0.03379390261627429 -8.138015320069162 0.03159166267569946 0.002037578886866138 44.537497019733586 -0.03279411311271768 -0.018448184955939185 44.602271797995535 12.489563583890813 0.01893856745103628 0.00825460049146919 -0.028181710036383235 0.016978957806685263 0.03377934203707058 -0.01767352884179624 -0.008767683777960975 0.039977598793052745 11.119344087001386 -0.04071068274142365 -0.03837183145946721 0.04321641446564694 -0.04141878250492289 0.0018419683464231875 -0.012771158793372242 0.01209372178629396 -0.006969828013975828 4.746270426355177 0.014082727282293973 0.014516665708907417 -0.02660372684786526 0.03989688987288103 0.004995801092636088 -0.015216744881763406 -0.018663074929042223 0.043574508170512546 -5.6334850346735275 0.04311358101559319 0.048025991597442676 -6.759085696108021 -0.0032461557085207587 -0.004789250632031084 -6.737099919012012 -0.02203452557453865 -0.029029038831751463 -0.03277838967960152 0.044462685050228004 -0.03557445433502789 8.019685391339111 3.484816282171572 -19.239698449561654 0.02430285982700325 10.44385930567475 0.06247404361528132 -5.664197623577063 -15.657705364901181 3.149784629815288 0.001512407986648027 0.04200285143555323 0.010594215701662963 0.02152536891565685 4.7311834555521175 0.008295326394607817 12.447373428388833 -8.285673454291349 6.884646728978698 0.04538300628227603 46.34558806056409 -0.010911006295862655 -4.282005494866124 -14.752330662992478 -3.863335305502323 0.04072011492224838 -0.04464171205992437 0.02101941756090788 -0.004174386731533616 -10.786288352139856 -0.018831455130056234 
